<?xml version="1.0" encoding="UTF-8"?>
<svg id="Layer_2" data-name="Layer 2" xmlns="http://www.w3.org/2000/svg" viewBox="0 0 586.14 585.91">
  <defs>
    <style>
      .cls-1 {
        fill: #000;
        stroke-width: 0px;
      }
    </style>
  </defs>
  <g id="Layer_1-2" data-name="Layer 1">
    <path class="cls-1" d="M177.94,530.3c-2.83-3.4-5.66-6.23-8.49-9.62-9.06-10.19-16.41-19.24-23.77-30.56-15.28-24.34-26.03-47.54-32.82-74.7-14.15-57.73-5.09-118.28,33.39-164.12,14.71-17.54,32.82-29.99,54.33-37.35,15.85-5.09,31.69-6.79,48.67-3.4,15.28,3.4,28.86,10.75,37.92,22.64-2.26-1.7-4.53-2.83-7.36-3.96-1.13-.57-2.26-1.7-3.4-2.26-25.47-11.88-54.33-7.92-78.67,5.09-44.71,24.9-67.35,75.27-66.22,124.51.57,16.41,3.4,32.82,8.49,48.67,10.19,29.43,26.6,54.9,49.24,76.4,17.54,16.41,36.79,29.99,58.86,40.18,5.09,2.26,10.19,3.96,15.28,6.23,73.57,27.73,154.5,16.41,222.41-28.86,18.11-12.45,32.82-24.9,46.97-40.18,10.75-12.45,20.37-24.9,29.43-39.05,8.49-14.15,15.28-28.3,19.81-43.58,1.13-2.83,2.26-5.66,2.83-9.06.57-3.96,1.7-7.36,1.13-11.32-.57-1.7-.57-2.83-1.7-2.83-5.09-1.13-8.49,4.53-11.88,7.92-11.88,14.15-22.64,27.17-35.09,40.18-15.85,15.85-32.26,28.86-51.5,41.31-17.54,11.32-35.09,18.68-53.76,25.47-13.02,4.53-26.03,6.79-39.62,9.06-16.41,2.26-31.69,2.83-48.1.57-6.23-1.13-11.88-1.13-18.11-2.83-3.96-1.13-7.92-1.7-11.88-2.83-21.51-5.66-40.18-14.71-57.73-28.3-21.51-16.98-36.79-37.92-44.14-63.95-5.66-20.94-5.09-43.58,5.09-62.82,1.13-2.26,2.83-3.96,3.96-6.23,3.4-5.09,7.36-8.49,11.88-12.45-16.41,23.2-16.41,53.76-6.23,79.23,16.41,39.05,52.63,64.52,94.51,73.57,31.69,6.23,61.69,2.83,90.55-7.92,19.24-7.36,35.65-17.54,52.07-30.56,19.24-15.28,33.39-32.82,45.84-53.76,30.56-50.37,39.05-105.83,28.3-162.99-13.58-71.31-54.9-130.73-113.19-169.22C403.18,14.73,380.55-.55,355.08.02c-1.7.57-2.83,1.7-2.26,3.96,1.13,2.83,3.96,5.09,6.23,7.36,26.6,22.64,50.93,43.01,72.44,71.87,19.81,27.17,33.39,54.9,41.31,87.15,10.19,44.14,7.92,88.85-11.32,129.6-14.71,31.13-39.05,57.16-71.31,69.61-30.56,11.88-70.18,9.62-91.68-17.54,19.24,14.71,45.28,16.98,68.48,10.19,11.32-3.4,20.94-7.92,31.13-14.71,3.4-2.83,6.23-5.09,9.62-7.36,13.58-11.88,23.77-26.03,31.69-41.88,13.58-28.3,16.98-58.86,13.02-89.98-3.4-24.9-13.02-46.97-26.03-68.48-11.32-18.11-24.9-32.82-41.31-46.41-38.48-31.69-84.89-48.1-133.56-49.8-22.64-1.13-44.71,1.13-67.35,6.23-44.71,10.19-82.63,31.69-116.58,62.25-21.51,20.37-39.05,42.45-52.63,68.48-2.26,4.53-3.96,9.06-6.23,13.58-3.4,7.92-5.66,15.85-7.92,24.34-.57,3.4-1.13,6.23-.57,9.62,0,1.7-.57,4.53,1.7,4.53,5.09.57,7.92-4.53,11.32-7.92,13.02-15.85,25.47-30.56,39.62-44.71,27.73-26.6,59.42-47.54,95.64-60.56,47.54-16.41,99.61-17.54,146.01,2.26,1.7.57,3.4,2.26,5.09,2.83,31.69,13.58,57.16,39.05,70.18,70.74,11.88,29.99,10.19,70.74-17.54,91.68,6.23-8.49,9.62-17.54,11.88-28.3,2.26-11.88,1.7-22.64-.57-34.52-5.66-24.34-18.68-43.58-36.79-59.42-27.73-23.77-62.82-33.96-97.91-33.39-26.6,1.13-52.07,7.92-75.84,20.37-30.56,16.41-54.33,38.48-73.57,68.48-19.81,30.56-30.56,62.82-34.52,97.91-6.23,52.63,5.09,104.13,31.13,150.54,16.41,28.86,36.22,52.63,62.25,74.14,16.41,13.02,32.82,23.2,51.5,32.26,3.96,1.7,8.49,3.4,12.45,5.09,7.36,2.83,14.15,4.53,22.07,5.66,2.26,0,5.09.57,7.36-.57,1.13-.57,1.7-2.26,1.13-3.4-3.96-7.36-10.75-11.32-16.98-16.41-.57-.57-.57-1.13-1.13-1.7-14.15-10.19-24.9-21.51-36.79-33.39h0Z"/>
  </g>
</svg>