<?xml version="1.0" encoding="UTF-8"?>
<svg id="Layer_2" data-name="Layer 2" xmlns="http://www.w3.org/2000/svg" viewBox="0 0 499.23 558.05">
  <defs>
    <style>
      .cls-1 {
        fill: #000;
        stroke-width: 0px;
      }
    </style>
  </defs>
  <g id="Layer_1-2" data-name="Layer 1">
    <path class="cls-1" d="M499.23,153.32l-15.94-27.62-121.75,70.29c-42.66,24.63-95.98-6.16-95.98-55.41V0h-31.89v140.58c0,49.26-53.32,80.04-95.98,55.41L15.94,125.7,0,153.32l121.75,70.29c42.66,24.63,42.66,86.2,0,110.83L0,404.73l15.94,27.62,121.75-70.29c42.66-24.63,95.98,6.16,95.98,55.41v140.58h31.89v-140.58c0-49.26,53.32-80.04,95.98-55.41l121.75,70.29,15.94-27.62-121.75-70.29c-42.66-24.63-42.66-86.2,0-110.83l121.75-70.29Z"/>
  </g>
</svg>